<svg width="41" height="40" viewBox="0 0 41 40" fill="none" xmlns="http://www.w3.org/2000/svg">
<rect opacity="0.2" x="0.26355" width="39.8159" height="40" rx="19.908" fill="#FDB52A"/>
<path d="M13.2817 25.9874C13.2817 23.5366 15.2685 21.5498 17.7193 21.5498H22.6237C25.0745 21.5498 27.0613 23.5366 27.0613 25.9874V25.9874C27.0613 26.8043 26.399 27.4666 25.5821 27.4666H14.7609C13.944 27.4666 13.2817 26.8043 13.2817 25.9874V25.9874Z" fill="#FDB52A"/>
<path d="M20.1741 20.4224C22.3426 20.4224 24.1005 18.6564 24.1005 16.4779C24.1005 14.2994 22.3426 12.5334 20.1741 12.5334C18.0056 12.5334 16.2477 14.2994 16.2477 16.4779C16.2477 18.6564 18.0056 20.4224 20.1741 20.4224Z" fill="#FDB52A"/>
</svg>
