<svg width="41" height="29" viewBox="0 0 41 29" fill="none" xmlns="http://www.w3.org/2000/svg">
<rect x="0.115234" y="0.0703125" width="40" height="28" rx="4" fill="#0A1330"/>
<path d="M9.64209 20.2535V14.9009H15.3102L15.9183 15.6936L16.5466 14.9009H37.1204V19.8844C37.1204 19.8844 36.5823 20.2482 35.9601 20.2535H24.5679L23.8823 19.4098V20.2535H21.6355V18.8132C21.6355 18.8132 21.3286 19.0142 20.665 19.0142H19.9003V20.2535H16.4985L15.8912 19.4438L15.2746 20.2535H9.64209Z" fill="#016FD0"/>
<path d="M3.02344 10.8667L4.30162 7.88715H6.5121L7.23748 9.55617V7.88715H9.98531L10.4171 9.09346L10.8358 7.88715H23.1707V8.4936C23.1707 8.4936 23.8191 7.88715 24.8848 7.88715L28.887 7.90113L29.5998 9.54831V7.88715H31.8994L32.5323 8.83332V7.88715H34.8529V13.2398H32.5323L31.9257 12.2905V13.2398H28.5472L28.2075 12.396H27.2992L26.965 13.2398H24.6738C23.7568 13.2398 23.1707 12.6457 23.1707 12.6457V13.2398H19.7161L19.0305 12.396V13.2398H6.18463L5.8451 12.396H4.93974L4.60262 13.2398H3.02344V10.8667Z" fill="#016FD0"/>
<path d="M4.75328 8.54681L3.0293 12.5552H4.1517L4.4698 11.7525H6.31904L6.63549 12.5552H7.78262L6.06028 8.54681H4.75328ZM5.39112 9.47968L5.9548 10.8823H4.8258L5.39112 9.47968Z" fill="white"/>
<path d="M7.90137 12.5542V8.5459L9.49637 8.55182L10.4241 11.1362L11.3296 8.5459H12.9118V12.5542H11.9097V9.60073L10.8475 12.5542H9.96865L8.90345 9.60073V12.5542H7.90137Z" fill="white"/>
<path d="M13.5981 12.5543V8.5459H16.8681V9.44251H14.6108V10.1282H16.8154V10.972H14.6108V11.684H16.8681V12.5543H13.5981Z" fill="white"/>
<path d="M17.4473 8.54681V12.5552H18.4494V11.1312H18.8713L20.0728 12.5552H21.2974L19.9789 11.0784C20.52 11.0328 21.0782 10.5683 21.0782 9.84724C21.0782 9.00373 20.4162 8.54681 19.6773 8.54681H17.4473ZM18.4494 9.44343H19.5949C19.8696 9.44343 20.0695 9.65837 20.0695 9.86536C20.0695 10.1317 19.8105 10.2873 19.6097 10.2873H18.4494V9.44343Z" fill="white"/>
<path d="M22.512 12.5543H21.4888V8.5459H22.512V12.5543Z" fill="white"/>
<path d="M24.9378 12.5543H24.7169C23.6483 12.5543 22.9995 11.7124 22.9995 10.5666C22.9995 9.39244 23.6411 8.5459 24.9905 8.5459H26.0981V9.49525H24.95C24.4022 9.49525 24.0148 9.92276 24.0148 10.5765C24.0148 11.3527 24.4578 11.6788 25.096 11.6788H25.3597L24.9378 12.5543Z" fill="white"/>
<path d="M27.1185 8.54681L25.3945 12.5552H26.5169L26.835 11.7525H28.6843L29.0007 12.5552H30.1479L28.4255 8.54681H27.1185ZM27.7564 9.47968L28.32 10.8823H27.191L27.7564 9.47968Z" fill="white"/>
<path d="M30.2642 12.5543V8.5459H31.5382L33.165 11.0643V8.5459H34.1671V12.5543H32.9342L31.2663 9.96993V12.5543H30.2642Z" fill="white"/>
<path d="M10.3281 19.5685V15.5601H13.5981V16.4567H11.3408V17.1424H13.5454V17.9862H11.3408V18.6983H13.5981V19.5685H10.3281Z" fill="white"/>
<path d="M26.3506 19.5685V15.5601H29.6206V16.4567H27.3632V17.1424H29.5573V17.9862H27.3632V18.6983H29.6206V19.5685H26.3506Z" fill="white"/>
<path d="M13.7254 19.5685L15.3175 17.589L13.6875 15.5601H14.95L15.9208 16.8144L16.8948 15.5601H18.1079L16.4993 17.5643L18.0943 19.5685H16.832L15.8895 18.334L14.9698 19.5685H13.7254Z" fill="white"/>
<path d="M18.2124 15.5605V19.5689H19.2409V18.3031H20.2957C21.1882 18.3031 21.8648 17.8296 21.8648 16.9088C21.8648 16.1459 21.3342 15.5605 20.4259 15.5605H18.2124ZM19.2409 16.467H20.3517C20.6401 16.467 20.8462 16.6438 20.8462 16.9285C20.8462 17.1961 20.6411 17.39 20.3484 17.39H19.2409V16.467Z" fill="white"/>
<path d="M22.3008 15.5601V19.5685H23.3029V18.1445H23.7248L24.9263 19.5685H26.1509L24.8324 18.0917C25.3735 18.0461 25.9317 17.5816 25.9317 16.8605C25.9317 16.017 25.2697 15.5601 24.5308 15.5601H22.3008ZM23.3029 16.4567H24.4484C24.7232 16.4567 24.923 16.6717 24.923 16.8787C24.923 17.145 24.6641 17.3006 24.4632 17.3006H23.3029V16.4567Z" fill="white"/>
<path d="M30.0848 19.5685V18.6983H32.0903C32.387 18.6983 32.5155 18.5379 32.5155 18.362C32.5155 18.1935 32.3874 18.0232 32.0903 18.0232H31.184C30.3962 18.0232 29.9575 17.5432 29.9575 16.8226C29.9575 16.1799 30.3593 15.5601 31.5299 15.5601H33.4813L33.0594 16.462H31.3717C31.049 16.462 30.9497 16.6313 30.9497 16.793C30.9497 16.9591 31.0725 17.1424 31.3189 17.1424H32.2683C33.1464 17.1424 33.5275 17.6405 33.5275 18.2928C33.5275 18.9941 33.1029 19.5685 32.2205 19.5685H30.0848Z" fill="white"/>
<path d="M33.762 19.5685V18.6983H35.7675C36.0643 18.6983 36.1927 18.5379 36.1927 18.362C36.1927 18.1935 36.0647 18.0232 35.7675 18.0232H34.8612C34.0735 18.0232 33.6348 17.5432 33.6348 16.8226C33.6348 16.1799 34.0365 15.5601 35.2071 15.5601H37.1187L36.7366 16.462H35.0489C34.7263 16.462 34.627 16.6313 34.627 16.793C34.627 16.9591 34.7497 17.1424 34.9962 17.1424H35.9455C36.8237 17.1424 37.2047 17.6405 37.2047 18.2928C37.2047 18.9941 36.7801 19.5685 35.8977 19.5685H33.762Z" fill="white"/>
</svg>
