<svg width="40" height="40" viewBox="0 0 40 40" fill="none" xmlns="http://www.w3.org/2000/svg">
<rect opacity="0.2" x="0.180176" width="39.8159" height="40" rx="19.908" fill="#05C168"/>
<path d="M23.6273 12.8887C22.9405 12.8887 22.2631 13.0493 21.6488 13.3579C21.0345 13.6665 20.5001 14.1145 20.0881 14.6664C19.531 13.9202 18.7542 13.369 17.868 13.0908C16.9817 12.8127 16.0308 12.8218 15.1499 13.1167C14.269 13.4117 13.5029 13.9777 12.9599 14.7344C12.417 15.4911 12.1249 16.4003 12.1249 17.3331C12.1249 22.659 19.4908 26.859 19.8005 27.0368C19.8883 27.0864 19.9874 27.1119 20.0881 27.1109C20.1888 27.1126 20.2881 27.087 20.3756 27.0368C21.7321 26.2402 23.0044 25.307 24.1729 24.2516C26.7462 21.9257 28.0512 19.5998 28.0512 17.3331C28.0512 16.1544 27.5852 15.0239 26.7555 14.1904C25.9258 13.3569 24.8006 12.8887 23.6273 12.8887Z" fill="#05C168"/>
</svg>
