<svg width="41" height="41" viewBox="0 0 41 41" fill="none" xmlns="http://www.w3.org/2000/svg">
	<mask id="mask0_4939_57042" style="mask-type:alpha" maskUnits="userSpaceOnUse" x="0" y="0" width="41" height="41">
		<rect x="0.0117188" y="0.130859" width="40" height="40" rx="6" fill="#E9EAF3" />
	</mask>
	<g mask="url(#mask0_4939_57042)">
		<rect x="1.86353" y="1.9834" width="36.2949" height="36.2949" rx="5.44424" fill="#0A1330" />
		<path fill-rule="evenodd" clipRule="evenodd" d="M13.0443 9.69408C13.4964 9.5089 14.7012 9.13853 15.9038 9.13853H23.6489C24.2208 9.13853 25.5868 9.21708 26.6717 9.68767C25.6797 8.51963 25.5808 7.36727 25.5464 6.96702C25.5457 6.95853 25.545 6.95038 25.5443 6.94257C25.5185 6.6459 25.4269 5.37556 25.3827 4.76108L25.3826 4.76049L25.3809 4.73669C25.355 4.37721 25.1195 4.07419 24.3678 3.90977C23.3221 3.68101 20.3482 3.1418 15.8384 3.77905C14.3652 4.08004 14.3663 4.47318 14.3677 4.97335C14.3678 4.98909 14.3678 5.00494 14.3678 5.02089C14.3678 5.41609 14.2698 7.06337 14.0574 8.02741C13.9746 8.40324 13.5998 9.13853 13.0443 9.69408ZM12.8855 30.6413C13.3622 30.8956 14.1435 31.3125 15.8139 31.3628C18.4272 31.4416 20.2454 31.436 21.9386 31.4307C22.3522 31.4295 22.7584 31.4282 23.1669 31.4282C23.1931 31.4282 23.2219 31.4283 23.2529 31.4284C23.8977 31.4307 25.5466 31.4367 27.1211 30.5949C25.6426 31.6049 25.6067 32.8511 25.5918 33.3698C25.59 33.4301 25.5886 33.4806 25.5852 33.5197C25.559 33.8204 25.4653 35.1047 25.4218 35.7093C25.3959 36.0687 25.1767 36.3945 24.425 36.5589C23.3793 36.7877 20.4054 37.3269 15.8956 36.6896C14.4224 36.3887 14.4235 35.9955 14.4249 35.4953C14.425 35.4796 14.425 35.4638 14.425 35.4478C14.425 35.0526 14.376 33.5851 14.0819 32.4249C13.9873 32.0519 13.461 31.036 12.595 30.4968C12.6802 30.5318 12.7746 30.5821 12.8855 30.6413Z" fill="#081028" />
		<path fill-rule="evenodd" clipRule="evenodd" d="M15.479 9.02222C12.5912 9.02222 10.2502 11.3632 10.2502 14.251V26.4078C10.2502 29.2956 12.5912 31.6366 15.479 31.6366H24.2032C27.0909 31.6366 29.4319 29.2956 29.4319 26.4078V17.8933C29.5436 17.9228 29.8186 17.9467 29.9051 17.887C29.9224 17.8751 29.9412 17.8693 29.9609 17.8632C30.0474 17.8365 30.1513 17.8043 30.2142 17.2312C30.2915 16.5275 30.2297 14.7841 30.1679 14.4962C30.1541 14.432 30.128 14.3787 30.0953 14.3349C29.9649 14.1598 29.7168 14.1601 29.4963 14.1603C29.4883 14.1603 29.4803 14.1603 29.4724 14.1603C29.4582 14.1603 29.4445 14.1615 29.4312 14.1637C29.3846 11.3162 27.0618 9.02222 24.2032 9.02222H15.479Z" fill="#7E89AC" />
		<rect x="11.0671" y="9.84033" width="17.545" height="20.978" rx="4.34641" fill="#081028" />
		<rect x="11.6917" y="10.4219" width="16.3329" height="19.9521" rx="3.54575" fill="#0B1739" />
	</g>
</svg>
