<svg width="40" height="40" viewBox="0 0 40 40" fill="none" xmlns="http://www.w3.org/2000/svg">
<rect opacity="0.2" x="0.180176" width="39.8159" height="40" rx="19.908" fill="#086CD9"/>
<path d="M20.0881 12C18.5131 12 16.9735 12.4692 15.664 13.3482C14.3545 14.2273 13.3338 15.4767 12.7311 16.9385C12.1284 18.4003 11.9707 20.0089 12.2779 21.5607C12.5852 23.1126 13.3436 24.538 14.4573 25.6569C15.571 26.7757 16.9899 27.5376 18.5346 27.8463C20.0793 28.155 21.6804 27.9965 23.1355 27.391C24.5906 26.7855 25.8342 25.7602 26.7092 24.4446C27.5843 23.129 28.0513 21.5822 28.0513 20C28.0472 17.8795 27.207 15.847 25.7145 14.3476C24.2219 12.8482 22.1988 12.0041 20.0881 12V12ZM16.4128 20.9231C16.2311 20.9231 16.0534 20.8689 15.9023 20.7675C15.7512 20.6661 15.6334 20.5219 15.5639 20.3532C15.4944 20.1846 15.4762 19.999 15.5116 19.8199C15.5471 19.6409 15.6346 19.4764 15.7631 19.3473C15.8916 19.2182 16.0553 19.1303 16.2335 19.0947C16.4118 19.059 16.5965 19.0773 16.7644 19.1472C16.9323 19.2171 17.0758 19.3354 17.1768 19.4872C17.2777 19.639 17.3316 19.8174 17.3316 20C17.3316 20.2448 17.2348 20.4796 17.0625 20.6527C16.8902 20.8258 16.6565 20.9231 16.4128 20.9231ZM20.0881 20.9231C19.9064 20.9231 19.7287 20.8689 19.5776 20.7675C19.4265 20.6661 19.3088 20.5219 19.2392 20.3532C19.1697 20.1846 19.1515 19.999 19.1869 19.8199C19.2224 19.6409 19.3099 19.4764 19.4384 19.3473C19.5669 19.2182 19.7306 19.1303 19.9088 19.0947C20.0871 19.059 20.2718 19.0773 20.4397 19.1472C20.6076 19.2171 20.7511 19.3354 20.8521 19.4872C20.953 19.639 21.0069 19.8174 21.0069 20C21.0069 20.2448 20.9101 20.4796 20.7378 20.6527C20.5655 20.8258 20.3318 20.9231 20.0881 20.9231ZM23.7634 20.9231C23.5817 20.9231 23.404 20.8689 23.2529 20.7675C23.1018 20.6661 22.9841 20.5219 22.9145 20.3532C22.845 20.1846 22.8268 19.999 22.8622 19.8199C22.8977 19.6409 22.9852 19.4764 23.1137 19.3473C23.2422 19.2182 23.4059 19.1303 23.5842 19.0947C23.7624 19.059 23.9471 19.0773 24.115 19.1472C24.2829 19.2171 24.4264 19.3354 24.5274 19.4872C24.6284 19.639 24.6822 19.8174 24.6822 20C24.6822 20.2448 24.5854 20.4796 24.4131 20.6527C24.2408 20.8258 24.0071 20.9231 23.7634 20.9231Z" fill="#086CD9"/>
</svg>
