<svg width="13" height="12" viewBox="0 0 13 12" fill="none" xmlns="http://www.w3.org/2000/svg">
	<path fillRule="evenodd" clipRule="evenodd" d="M6.36268 0C6.80348 0 7.16082 0.357339 7.16082 0.798139V1.2019C7.52801 1.20203 7.89159 1.27442 8.23083 1.41494C8.57038 1.55558 8.87891 1.76173 9.13879 2.02161C9.39867 2.2815 9.60482 2.59002 9.74547 2.92957C9.88612 3.26912 9.9585 3.63305 9.9585 4.00058C9.9585 4.44138 9.60117 4.79872 9.16037 4.79872C8.71957 4.79872 8.36223 4.44138 8.36223 4.00058C8.36223 3.84268 8.33113 3.68632 8.2707 3.54044C8.21027 3.39456 8.1217 3.26201 8.01005 3.15035C7.8984 3.0387 7.76584 2.95013 7.61996 2.8897C7.47408 2.82928 7.31772 2.79818 7.15982 2.79818H5.35933C5.04044 2.79818 4.7346 2.92486 4.5091 3.15035C4.28361 3.37585 4.15693 3.68168 4.15693 4.00058C4.15693 4.31948 4.28361 4.62531 4.5091 4.85081C4.7346 5.0763 5.04044 5.20299 5.35933 5.20299H7.55993C8.30219 5.20299 9.01404 5.49785 9.5389 6.0227C10.0638 6.54756 10.3586 7.25941 10.3586 8.00167C10.3586 8.74392 10.0638 9.45578 9.5389 9.98063C9.01404 10.5055 8.30219 10.8004 7.55993 10.8004H7.16082V11.2019C7.16082 11.6427 6.80348 12 6.36268 12C5.92188 12 5.56454 11.6427 5.56454 11.2019V10.8004H5.15928C4.41702 10.8004 3.70517 10.5055 3.18031 9.98063C2.65546 9.45578 2.3606 8.74392 2.3606 8.00167C2.3606 7.56087 2.71793 7.20353 3.15873 7.20353C3.59953 7.20353 3.95687 7.56087 3.95687 8.00167C3.95687 8.32057 4.08356 8.6264 4.30905 8.8519C4.53454 9.07739 4.84038 9.20407 5.15928 9.20407H6.32948C6.34049 9.20362 6.35156 9.20339 6.36268 9.20339C6.3738 9.20339 6.38487 9.20362 6.39588 9.20407H7.55993C7.87883 9.20407 8.18466 9.07739 8.41016 8.8519C8.63565 8.6264 8.76234 8.32057 8.76234 8.00167C8.76234 7.68277 8.63565 7.37693 8.41016 7.15144C8.18466 6.92594 7.87883 6.79926 7.55993 6.79926H5.35933C4.61708 6.79926 3.90522 6.5044 3.38037 5.97955C2.85551 5.45469 2.56065 4.74284 2.56065 4.00058C2.56065 3.25832 2.85551 2.54647 3.38037 2.02161C3.90522 1.49676 4.61708 1.2019 5.35933 1.2019H5.56454V0.798139C5.56454 0.357339 5.92188 0 6.36268 0Z" fill="#CB3CFF" />
</svg>
