<svg width="13" height="12" viewBox="0 0 13 12" fill="none" xmlns="http://www.w3.org/2000/svg">
<path d="M11.4744 2.53337H9.12631C9.01524 1.89015 8.68053 1.30684 8.18124 0.886384C7.68196 0.465927 7.0502 0.235352 6.39746 0.235352C5.74472 0.235352 5.11296 0.465927 4.61368 0.886384C4.1144 1.30684 3.77968 1.89015 3.66861 2.53337H1.32054C1.07572 2.53337 0.840934 2.63063 0.667824 2.80374C0.494713 2.97685 0.397461 3.21164 0.397461 3.45645V10.8411C0.397461 11.0859 0.494713 11.3207 0.667824 11.4938C0.840934 11.6669 1.07572 11.7641 1.32054 11.7641H11.4744C11.7192 11.7641 11.954 11.6669 12.1271 11.4938C12.3002 11.3207 12.3975 11.0859 12.3975 10.8411V3.45645C12.3975 3.21164 12.3002 2.97685 12.1271 2.80374C11.954 2.63063 11.7192 2.53337 11.4744 2.53337ZM6.39746 1.14876C6.80665 1.14954 7.20407 1.28582 7.52763 1.53632C7.85118 1.78682 8.08267 2.13742 8.18592 2.53337H4.609C4.71225 2.13742 4.94374 1.78682 5.2673 1.53632C5.59086 1.28582 5.98827 1.14954 6.39746 1.14876Z" fill="#CB3CFF"/>
</svg>
