<svg width="11" height="13" viewBox="0 0 11 13" fill="none" xmlns="http://www.w3.org/2000/svg">
<path d="M10.3526 6.04114C10.4382 6.12911 10.4857 6.24734 10.4846 6.3701C10.4835 6.49286 10.434 6.61023 10.3469 6.6967L5.63144 11.4064C5.02749 12.0103 4.20835 12.3496 3.35424 12.3496C2.50012 12.3496 1.68099 12.0103 1.07704 11.4064C0.473085 10.8024 0.133789 9.98328 0.133789 9.12916C0.133789 8.27504 0.473085 7.45591 1.07704 6.85196L6.78729 1.06695C6.99856 0.844181 7.2523 0.665964 7.53353 0.542801C7.81477 0.419639 8.11781 0.354024 8.4248 0.349825C8.73179 0.345625 9.03652 0.402926 9.32102 0.518349C9.60552 0.633772 9.86403 0.804982 10.0813 1.02189C10.2986 1.23879 10.4703 1.497 10.5862 1.78129C10.7021 2.06559 10.76 2.37021 10.7563 2.67721C10.7526 2.98421 10.6876 3.28737 10.5649 3.56882C10.4422 3.85027 10.2645 4.10432 10.0421 4.31599L4.33182 10.101C4.20419 10.2306 4.05199 10.3335 3.88414 10.4036C3.71629 10.4737 3.53614 10.5096 3.35424 10.5093C3.08078 10.51 2.81329 10.4294 2.58571 10.2778C2.35812 10.1262 2.18071 9.91037 2.07597 9.65777C1.97123 9.40517 1.94389 9.12715 1.99743 8.85898C2.05096 8.59082 2.18295 8.3446 2.37665 8.15157L7.16683 3.28664C7.20828 3.24015 7.25874 3.20256 7.31515 3.17615C7.37156 3.14974 7.43275 3.13506 7.495 3.133C7.55726 3.13094 7.61928 3.14154 7.67732 3.16417C7.73535 3.18679 7.78819 3.22097 7.83262 3.26462C7.87705 3.30827 7.91216 3.3605 7.93581 3.41812C7.95946 3.47575 7.97116 3.53757 7.9702 3.59985C7.96924 3.66214 7.95565 3.72357 7.93024 3.78044C7.90483 3.83732 7.86814 3.88843 7.82238 3.9307L3.03221 8.80138C2.9886 8.84412 2.95394 8.89512 2.93025 8.9514C2.90655 9.00767 2.8943 9.0681 2.8942 9.12916C2.89588 9.21967 2.92391 9.30772 2.97484 9.38255C3.02577 9.45739 3.0974 9.51576 3.18098 9.55053C3.26456 9.5853 3.35645 9.59497 3.44544 9.57835C3.53442 9.56173 3.61663 9.51954 3.68202 9.45694L9.38652 3.66618C9.51613 3.53854 9.61899 3.38635 9.68909 3.21849C9.75919 3.05064 9.79513 2.8705 9.79481 2.68859C9.79548 2.41514 9.7149 2.14764 9.5633 1.92006C9.41169 1.69248 9.1959 1.51506 8.9433 1.41032C8.69069 1.30558 8.41267 1.27825 8.14451 1.33178C7.87634 1.38532 7.63012 1.51731 7.4371 1.711L1.73259 7.50177C1.50983 7.71304 1.33161 7.96677 1.20845 8.24801C1.08529 8.52924 1.01967 8.83228 1.01547 9.13928C1.01127 9.44627 1.06857 9.751 1.184 10.0355C1.29942 10.32 1.47063 10.5785 1.68753 10.7958C1.90444 11.0131 2.16265 11.1847 2.44694 11.3007C2.73123 11.4166 3.03586 11.4744 3.34286 11.4708C3.64985 11.4671 3.95302 11.402 4.23447 11.2794C4.51592 11.1567 4.76997 10.9789 4.98163 10.7566L9.69705 6.04114C9.78427 5.95475 9.90207 5.90629 10.0248 5.90629C10.1476 5.90629 10.2654 5.95475 10.3526 6.04114Z" fill="#AEB9E1"/>
</svg>
